<svg width="16" height="16" viewBox="0 0 16 16" fill="none" xmlns="http://www.w3.org/2000/svg">
    <g clip-path="url(#clip0_136_7564)">
    <path fill-rule="evenodd" clip-rule="evenodd" d="M14 2V14H2V2H14ZM14 0H2C1.46957 0 0.960858 0.210712 0.585785 0.585785C0.210712 0.960858 0 1.46957 0 2V14C0 14.5304 0.210712 15.0391 0.585785 15.4142C0.960858 15.7893 1.46957 16 2 16H14C14.5304 16 15.0391 15.7893 15.4142 15.4142C15.7893 15.0391 16 14.5304 16 14V2C16 1.46957 15.7893 0.960858 15.4142 0.585785C15.0391 0.210712 14.5304 0 14 0ZM7 11C6.73481 10.9999 6.48049 10.8946 6.293 10.707L4.293 8.707C4.19749 8.61475 4.1213 8.50441 4.06889 8.3824C4.01648 8.2604 3.9889 8.12918 3.98775 7.9964C3.98659 7.86362 4.0119 7.73194 4.06218 7.60905C4.11246 7.48615 4.18672 7.3745 4.28061 7.28061C4.3745 7.18671 4.48614 7.11246 4.60904 7.06218C4.73194 7.0119 4.86362 6.9866 4.9964 6.98775C5.12918 6.9889 5.2604 7.01649 5.3824 7.0689C5.5044 7.12131 5.61475 7.19749 5.707 7.293L7 8.586L10.293 5.293C10.3852 5.19749 10.4956 5.12131 10.6176 5.0689C10.7396 5.01649 10.8708 4.9889 11.0036 4.98775C11.1364 4.9866 11.2681 5.0119 11.391 5.06218C11.5139 5.11246 11.6255 5.18671 11.7194 5.28061C11.8133 5.3745 11.8875 5.48615 11.9378 5.60905C11.9881 5.73194 12.0134 5.86362 12.0123 5.9964C12.0111 6.12918 11.9835 6.2604 11.9311 6.3824C11.8787 6.50441 11.8025 6.61475 11.707 6.707L7.707 10.707C7.51951 10.8946 7.26519 10.9999 7 11Z" fill="#009640"/>
    </g>
    <defs>
    <clipPath id="clip0_136_7564">
    <rect width="16" height="16" fill="white"/>
    </clipPath>
    </defs>
    </svg>
    