<svg width="181" height="136" viewBox="0 0 181 136" fill="red" xmlns="http://www.w3.org/2000/svg">
<path fill-rule="evenodd" clip-rule="evenodd" d="M39.1501 52.2361C37.0771 50.0875 34.5975 48.3737 31.8558 47.1947C29.1141 46.0158 26.1654 45.3952 23.1816 45.3692C20.1977 45.3433 17.2387 45.9125 14.4769 47.0436C11.7152 48.1747 9.20618 49.845 7.09623 51.9572C4.98628 54.0694 3.31767 56.5811 2.18776 59.3457C1.05785 62.1104 0.489263 65.0726 0.515192 68.0596C0.54112 71.0465 1.16103 73.9984 2.33876 76.743C3.51649 79.4875 5.22847 81.9698 7.37477 84.045L52.3187 129.036C56.5328 133.254 62.2476 135.623 68.2063 135.623C74.1651 135.623 79.8799 133.254 84.094 129.036L173.982 39.0536C176.128 36.9784 177.84 34.4961 179.018 31.7516C180.196 29.007 180.815 26.0551 180.841 23.0681C180.867 20.0812 180.299 17.119 179.169 14.3543C178.039 11.5897 176.37 9.07799 174.26 6.96581C172.15 4.85363 169.641 3.18325 166.88 2.05215C164.118 0.921043 161.159 0.351847 158.175 0.377802C155.191 0.403758 152.242 1.02433 149.501 2.20331C146.759 3.38229 144.279 5.09607 142.206 7.24464L68.2063 81.323L39.1501 52.2361Z" fill="#13637A"/>
</svg>
