<svg width="16" height="16" viewBox="0 0 16 16" fill="none" xmlns="http://www.w3.org/2000/svg">
    <path fill-rule="evenodd" clip-rule="evenodd" d="M15 3H11V2C11 1.46957 10.7893 0.960888 10.4142 0.585815C10.0391 0.210743 9.53043 0 9 0H7C6.46957 0 5.96086 0.210743 5.58578 0.585815C5.21071 0.960888 5 1.46957 5 2V3H1C0.734784 3 0.480429 3.10537 0.292892 3.29291C0.105356 3.48044 0 3.73478 0 4C0 4.26522 0.105356 4.51956 0.292892 4.70709C0.480429 4.89463 0.734784 5 1 5H2V14C2 14.5304 2.21071 15.0391 2.58578 15.4142C2.96086 15.7893 3.46957 16 4 16H12C12.5304 16 13.0391 15.7893 13.4142 15.4142C13.7893 15.0391 14 14.5304 14 14V5H15C15.2652 5 15.5196 4.89463 15.7071 4.70709C15.8946 4.51956 16 4.26522 16 4C16 3.73478 15.8946 3.48044 15.7071 3.29291C15.5196 3.10537 15.2652 3 15 3ZM7 2H9V3H7V2ZM12 14H4V5H12V14Z" fill="#202833"/>
    </svg>
    