<svg width="17" height="16" viewBox="0 0 17 16" fill="none" xmlns="http://www.w3.org/2000/svg">
<path fill-rule="evenodd" clip-rule="evenodd" d="M12.7266 0H4.72656C4.19662 0.00158273 3.68882 0.212794 3.31409 0.587524C2.93936 0.962255 2.72815 1.47005 2.72656 2V11C2.72799 11.1572 2.74847 11.3137 2.78757 11.466C2.79857 11.513 2.81557 11.558 2.83057 11.604C2.86285 11.705 2.90297 11.8033 2.95056 11.898C2.97556 11.947 3.00057 11.998 3.02957 12.044C3.08931 12.137 3.15616 12.2253 3.22955 12.308C3.25855 12.341 3.28156 12.377 3.31256 12.408C3.41743 12.5118 3.53348 12.6037 3.65857 12.682C3.67357 12.692 3.68455 12.706 3.69955 12.715L8.69955 15.715C9.003 15.8966 9.34919 15.9945 9.70279 15.9987C10.0564 16.0029 10.4048 15.9133 10.7125 15.739C11.0201 15.5646 11.2761 15.3118 11.4543 15.0063C11.6324 14.7009 11.7264 14.3536 11.7266 14V6C11.7266 5.65463 11.6371 5.31513 11.467 5.01459C11.2968 4.71404 11.0517 4.46267 10.7556 4.28497L6.94757 2H12.7266V13C13.2565 12.9984 13.7643 12.7872 14.139 12.4125C14.5138 12.0377 14.725 11.5299 14.7266 11V2C14.725 1.47005 14.5138 0.962255 14.139 0.587524C13.7643 0.212794 13.2565 0.00158273 12.7266 0ZM9.72656 14L4.72656 11V3L9.72656 6V14ZM7.21155 9.66101C7.36356 9.75234 7.53712 9.80156 7.71445 9.80371C7.89177 9.80586 8.06649 9.76084 8.22067 9.67322C8.37485 9.5856 8.50296 9.45856 8.59186 9.30511C8.68076 9.15167 8.72724 8.97732 8.72656 8.79999C8.72656 8.53477 8.62119 8.28043 8.43365 8.0929C8.24612 7.90536 7.99178 7.79999 7.72656 7.79999C7.46135 7.79999 7.20701 7.90536 7.01947 8.0929C6.83193 8.28043 6.72656 8.53477 6.72656 8.79999C6.7259 8.97322 6.77027 9.14368 6.85529 9.29462C6.94031 9.44555 7.06305 9.5718 7.21155 9.66101Z" fill="#FDFDFD"/>
</svg>
