<svg width="15" height="16" viewBox="0 0 15 16" fill="none" xmlns="http://www.w3.org/2000/svg">
<g clip-path="url(#clip0_101_6933)">
<path fill-rule="evenodd" clip-rule="evenodd" d="M13.7973 16H0.926149C0.682073 16 0.447993 15.8946 0.275405 15.7071C0.102818 15.5196 0.00585938 15.2652 0.00585938 15V1C0.00585938 0.734786 0.102818 0.480447 0.275405 0.29291C0.447993 0.105374 0.682073 2.47095e-06 0.926149 2.47095e-06H6.44144C6.68552 2.47095e-06 6.9196 0.105374 7.09219 0.29291C7.26477 0.480447 7.36173 0.734786 7.36173 1C7.36173 1.26522 7.26477 1.51956 7.09219 1.70709C6.9196 1.89463 6.68552 2 6.44144 2H1.83999V14H12.878V9C12.878 8.73479 12.9749 8.48045 13.1475 8.29291C13.3201 8.10537 13.5542 8 13.7982 8C14.0423 8 14.2764 8.10537 14.449 8.29291C14.6216 8.48045 14.7185 8.73479 14.7185 9V15C14.7185 15.1314 14.6947 15.2615 14.6484 15.3829C14.6021 15.5043 14.5342 15.6146 14.4487 15.7075C14.3631 15.8003 14.2615 15.874 14.1498 15.9242C14.038 15.9744 13.9182 16.0001 13.7973 16ZM11.9567 2L12.877 3L6.44144 10H5.52115V9L11.9567 2ZM11.9567 2.47095e-06C11.7151 -0.000411361 11.4758 0.0511597 11.2526 0.151736C11.0295 0.252312 10.8268 0.399902 10.6564 0.586001L4.22078 7.586C4.04969 7.77159 3.91392 7.992 3.82123 8.23462C3.72854 8.47724 3.68075 8.73731 3.68057 9V10C3.68057 10.5304 3.87449 11.0391 4.21967 11.4142C4.56484 11.7893 5.033 12 5.52115 12H6.44144C6.92924 11.9996 7.39694 11.7889 7.74181 11.414L14.1774 4.414C14.5225 4.03895 14.7163 3.53033 14.7163 3C14.7163 2.46967 14.5225 1.96106 14.1774 1.586L13.2571 0.586001C13.0869 0.400141 12.8845 0.252701 12.6617 0.152133C12.4388 0.051564 12.1999 -0.000147454 11.9586 2.47095e-06H11.9567Z" fill="#FDFDFD"/>
</g>
<defs>
<clipPath id="clip0_101_6933">
<rect width="14.7246" height="16" fill="white"/>
</clipPath>
</defs>
</svg>
