<svg width="16" height="16" viewBox="0 0 16 16" fill="none" xmlns="http://www.w3.org/2000/svg">
    <path fill-rule="evenodd" clip-rule="evenodd" d="M14.9938 16H1.00781C0.742596 16 0.488241 15.8946 0.300705 15.7071C0.113169 15.5196 0.0078125 15.2652 0.0078125 15V1C0.0078125 0.734786 0.113169 0.480447 0.300705 0.29291C0.488241 0.105374 0.742596 2.47095e-06 1.00781 2.47095e-06H7.00081C7.26603 2.47095e-06 7.52038 0.105374 7.70792 0.29291C7.89545 0.480447 8.00081 0.734786 8.00081 1C8.00081 1.26522 7.89545 1.51956 7.70792 1.70709C7.52038 1.89463 7.26603 2 7.00081 2H2.00081V14H13.9948V9C13.9948 8.73479 14.1002 8.48045 14.2877 8.29291C14.4752 8.10537 14.7296 8 14.9948 8C15.26 8 15.5144 8.10537 15.7019 8.29291C15.8894 8.48045 15.9948 8.73479 15.9948 9V15C15.9948 15.1314 15.9689 15.2615 15.9186 15.3829C15.8683 15.5043 15.7945 15.6146 15.7016 15.7075C15.6086 15.8003 15.4982 15.874 15.3768 15.9242C15.2554 15.9744 15.1252 16.0001 14.9938 16ZM12.9938 2L13.9938 3L7.00081 10H6.00081V9L12.9938 2ZM12.9938 2.47095e-06C12.7313 -0.000411361 12.4712 0.0511597 12.2287 0.151736C11.9862 0.252312 11.766 0.399902 11.5808 0.586001L4.58781 7.586C4.4019 7.77159 4.25437 7.992 4.15365 8.23462C4.05293 8.47724 4.001 8.73731 4.00081 9V10C4.00081 10.5304 4.21152 11.0391 4.58659 11.4142C4.96167 11.7893 5.47038 12 6.00081 12H7.00081C7.53085 11.9996 8.03907 11.7889 8.41381 11.414L15.4068 4.414C15.7817 4.03895 15.9924 3.53033 15.9924 3C15.9924 2.46967 15.7817 1.96106 15.4068 1.586L14.4068 0.586001C14.2219 0.400141 14.002 0.252701 13.7598 0.152133C13.5177 0.051564 13.258 -0.000147454 12.9958 2.47095e-06H12.9938Z" fill="#202833"/>
    </svg>
    