<svg width="50" height="50" viewBox="0 0 20 20" fill="none" xmlns="http://www.w3.org/2000/svg">
  <defs>
    <linearGradient id="gradient" x1="0%" y1="0%" x2="100%" y2="100%">
      <stop offset="0%" style="stop-color:#35A2A7; stop-opacity:1" />
      <stop offset="100%" style="stop-color:#F05623; stop-opacity:1" />
    </linearGradient>
    <clipPath id="clip0_101_6909">
      <rect width="20" height="20" fill="white"/>
    </clipPath>
  </defs>
  <g clip-path="url(#clip0_101_6909)">
    <path fill-rule="evenodd" clip-rule="evenodd" d="M16.25 2.5V17.5L10 15L3.75 17.5V2.5H16.25ZM16.25 0H3.75C3.08696 0 2.45111 0.26339 1.98227 0.732231C1.51343 1.20107 1.25 1.83696 1.25 2.5V17.5C1.24997 17.9086 1.3501 18.3109 1.5416 18.6719C1.7331 19.0328 2.01014 19.3413 2.34848 19.5704C2.68682 19.7994 3.07612 19.9421 3.48236 19.9858C3.8886 20.0295 4.29938 19.973 4.67873 19.8212L10 17.6963L15.3213 19.8212C15.7006 19.973 16.1114 20.0295 16.5176 19.9858C16.9239 19.9421 17.3132 19.7994 17.6515 19.5704C17.9899 19.3413 18.2669 19.0328 18.4584 18.6719C18.6499 18.3109 18.75 17.9086 18.75 17.5V2.5C18.75 1.83696 18.4866 1.20107 18.0177 0.732231C17.5489 0.26339 16.913 0 16.25 0ZM10 5.18375L11.1588 7.53124L13.75 7.90627L11.875 9.73499L12.3175 12.315L10 11.0975L7.6825 12.3162L8.125 9.73625L6.25 7.90749L8.84125 7.5325L10 5.18375Z" fill="url(#gradient)"/>
  </g>
</svg>
