<svg width="50" height="50" viewBox="0 0 20 20" fill="none" xmlns="http://www.w3.org/2000/svg">
    <defs>
      <linearGradient id="grad1" x1="0%" y1="0%" x2="100%" y2="100%">
        <stop offset="0%" style="stop-color:#35A2A7; stop-opacity:1" />
        <stop offset="100%" style="stop-color:#F05623; stop-opacity:1" />
      </linearGradient>
      <clipPath id="clip0_101_6913">
        <rect width="20" height="20" fill="white" />
      </clipPath>
    </defs>
    <g clip-path="url(#clip0_101_6913)">
      <path fill-rule="evenodd" clip-rule="evenodd" d="M18.0221 10.5L17.1196 9.97875L18.0221 9.50375C18.5954 9.17265 19.0139 8.62771 19.1859 7.98844C19.3579 7.34918 19.2693 6.6678 18.9396 6.09375L17.6896 3.91875C17.5249 3.63267 17.3054 3.3819 17.0436 3.18082C16.7819 2.97974 16.4829 2.83229 16.1641 2.74694C15.8452 2.66159 15.5127 2.64001 15.1854 2.68344C14.8582 2.72686 14.5427 2.83444 14.2572 3L13.3571 3.52L13.3821 2.5C13.3821 1.83696 13.1187 1.20107 12.6499 0.732231C12.181 0.26339 11.5452 0 10.8821 0H8.38215C7.7191 0 7.08326 0.26339 6.61442 0.732231C6.14557 1.20107 5.88215 1.83696 5.88215 2.5V3.5325L5.00713 2.99875C4.72196 2.83403 4.40713 2.72712 4.08062 2.68414C3.7541 2.64117 3.42229 2.66297 3.10421 2.7483C2.78612 2.83362 2.488 2.9808 2.22683 3.18142C1.96566 3.38204 1.74659 3.63217 1.58214 3.9175L0.332143 6.0925C0.00242911 6.66655 -0.0861355 7.34793 0.0858657 7.98719C0.257867 8.62646 0.676401 9.1714 1.24965 9.5025L2.13466 10.0138L1.24965 10.4988C0.676401 10.8298 0.257867 11.3748 0.0858657 12.0141C-0.0861355 12.6533 0.00242911 13.3347 0.332143 13.9087L1.58214 16.0837C1.74659 16.3691 1.96566 16.6192 2.22683 16.8198C2.488 17.0204 2.78612 17.1676 3.10421 17.253C3.42229 17.3383 3.7541 17.3601 4.08062 17.3171C4.40713 17.2741 4.72196 17.1672 5.00713 17.0025L5.90717 16.4825L5.88215 17.5C5.88215 18.163 6.14557 18.7989 6.61442 19.2678C7.08326 19.7366 7.7191 20 8.38215 20H10.8821C11.5452 20 12.181 19.7366 12.6499 19.2678C13.1187 18.7989 13.3821 18.163 13.3821 17.5V16.4675L14.2572 17.0012C14.8334 17.3336 15.518 17.4236 16.1605 17.2513C16.803 17.079 17.3508 16.6586 17.6834 16.0825L18.9334 13.9075C19.2628 13.3344 19.3519 12.6542 19.1812 12.0156C19.0104 11.3771 18.5936 10.8321 18.0221 10.5ZM15.8647 12.1425L16.7684 12.6637L15.5184 14.8388L14.6184 14.3188C14.244 14.1021 13.819 13.9881 13.3865 13.9881C12.9539 13.9881 12.5291 14.1021 12.1547 14.3188L12.1196 14.3388C11.7448 14.5527 11.4331 14.8619 11.2162 15.2351C10.9994 15.6083 10.885 16.0321 10.8847 16.4637V17.5H8.38466V16.4675C8.38397 16.0361 8.26954 15.6125 8.05294 15.2394C7.83633 14.8664 7.52521 14.557 7.15091 14.3425L7.11467 14.3225C6.74035 14.1056 6.31536 13.9915 5.88276 13.9915C5.45015 13.9915 5.02524 14.1056 4.65091 14.3225L3.75087 14.8425L2.50087 12.6675L3.38215 12.1513C3.75984 11.9333 4.07349 11.6197 4.29157 11.2421C4.50965 10.8645 4.62444 10.4361 4.62444 10C4.62444 9.56392 4.50965 9.13553 4.29157 8.7579C4.07349 8.38027 3.75984 8.06671 3.38215 7.84875L2.49592 7.3375L3.74591 5.1625L4.64588 5.6825C5.02025 5.89923 5.44522 6.01336 5.8778 6.01336C6.31038 6.01336 6.73527 5.89923 7.10964 5.6825L7.14466 5.6625C7.51953 5.44856 7.83117 5.13934 8.04805 4.76617C8.26494 4.39299 8.37931 3.96912 8.37963 3.5375V2.5H10.8796V3.5325C10.8803 3.96404 10.9949 4.38777 11.2117 4.76088C11.4286 5.13398 11.7401 5.44327 12.1147 5.6575L12.1496 5.6775C12.5239 5.89448 12.9489 6.00875 13.3815 6.00875C13.8142 6.00875 14.239 5.89448 14.6133 5.6775L15.5133 5.1575L15.8647 12.1425Z" fill="url(#grad1)" />
    </g>
  </svg>
  