<svg width="26" height="23" viewBox="0 0 26 23" fill="none" xmlns="http://www.w3.org/2000/svg">
<path d="M13.0052 22.9527C9.91943 22.9527 6.83369 22.9527 3.74796 22.9527C2.89185 22.9742 2.05559 22.6931 1.38618 22.159C0.716775 21.6249 0.257076 20.8719 0.0879023 20.0324C-0.113877 19.1316 0.0469699 18.1875 0.535675 17.4042C3.60519 12.2905 6.67145 7.13789 9.73448 1.94633C10.2126 1.08287 11.0089 0.440208 11.9539 0.15524C12.7343 -0.0796156 13.5709 -0.0472397 14.3309 0.247235C15.0909 0.54171 15.7308 1.08143 16.1493 1.78085C19.2642 6.97241 22.3727 12.1834 25.4747 17.4139C25.8015 17.9659 25.9779 18.594 25.9863 19.2354C25.9948 19.8768 25.8349 20.5093 25.5227 21.0696C25.2105 21.63 24.7569 22.0988 24.207 22.4292C23.6571 22.7596 23.0303 22.9401 22.3889 22.9527C19.274 22.9527 16.1493 22.9527 13.0246 22.9527H13.0052ZM13.0052 21.4244H22.2721C22.6627 21.4347 23.0487 21.3384 23.3887 21.1459C23.7287 20.9534 24.0099 20.672 24.202 20.3317C24.3941 19.9915 24.49 19.6054 24.4792 19.2148C24.4685 18.8242 24.3516 18.444 24.1411 18.1148L14.8547 2.59852C14.6667 2.27308 14.3963 2.00285 14.0708 1.81498C13.7453 1.6271 13.3761 1.52819 13.0003 1.52819C12.6245 1.52819 12.2553 1.6271 11.9298 1.81498C11.6043 2.00285 11.3339 2.27308 11.1459 2.59852L8.60531 6.81342L1.86926 18.144C1.60136 18.552 1.48748 19.042 1.54803 19.5263C1.5974 20.0701 1.85264 20.5745 2.26156 20.9364C2.67047 21.2982 3.20218 21.4902 3.74796 21.4731L13.0052 21.4244Z" fill="white"/>
<path d="M12.2562 6.15161H13.7455V16.061H12.2562V6.15161Z" fill="white"/>
<path d="M12.2562 17.6183H13.7552V19.1173H12.2562V17.6183Z" fill="white"/>
</svg>
