<svg width="50" height="50" viewBox="0 0 20 20" fill="none" xmlns="http://www.w3.org/2000/svg">
  <defs>
    <linearGradient id="gradient" x1="0%" y1="0%" x2="100%" y2="100%">
      <stop offset="0%" style="stop-color:#35A2A7;" />
      <stop offset="100%" style="stop-color:#F05623;" />
    </linearGradient>
    <clipPath id="clip0_101_6911">
      <rect width="20" height="20" fill="white"/>
    </clipPath>
  </defs>
  <g clip-path="url(#clip0_101_6911)">
    <path fill-rule="evenodd" clip-rule="evenodd" d="M9.99998 2.5C11.4833 2.5 12.9334 2.93987 14.1668 3.76398C15.4001 4.58809 16.3614 5.75943 16.9291 7.12988C17.4967 8.50033 17.6453 10.0083 17.3559 11.4632C17.0665 12.918 16.3521 14.2544 15.3033 15.3033C14.2544 16.3522 12.918 17.0665 11.4631 17.3559C10.0083 17.6453 8.50033 17.4967 7.12988 16.9291C5.75943 16.3614 4.58805 15.4001 3.76394 14.1668C2.93983 12.9334 2.49998 11.4834 2.49998 10C2.49998 8.01088 3.29019 6.10322 4.69671 4.69669C6.10324 3.29017 8.01086 2.5 9.99998 2.5ZM9.99998 0C8.02217 0 6.08875 0.586481 4.44426 1.6853C2.79977 2.78411 1.51804 4.34591 0.761167 6.17317C0.00429042 8.00043 -0.193686 10.0111 0.192166 11.9509C0.578019 13.8907 1.53038 15.6726 2.92891 17.0711C4.32743 18.4696 6.10926 19.422 8.04907 19.8079C9.98888 20.1937 11.9995 19.9957 13.8268 19.2388C15.6541 18.4819 17.2158 17.2002 18.3146 15.5557C19.4135 13.9112 20 11.9778 20 10C19.997 7.34875 18.9425 4.80694 17.0678 2.93222C15.1931 1.05751 12.6512 0.00297764 9.99998 0ZM11.25 6.25C11.25 6.58152 11.1183 6.89946 10.8838 7.13388C10.6494 7.3683 10.3315 7.5 9.99998 7.5C9.66846 7.5 9.35054 7.3683 9.11612 7.13388C8.8817 6.89946 8.74998 6.58152 8.74998 6.25C8.74998 5.91848 8.8817 5.60054 9.11612 5.36612C9.35054 5.1317 9.66846 5 9.99998 5C10.3315 5 10.6494 5.1317 10.8838 5.36612C11.1183 5.60054 11.25 5.91848 11.25 6.25ZM10.1325 15H9.86746C9.57039 14.998 9.28618 14.8786 9.07683 14.6679C8.86747 14.4571 8.74998 14.1721 8.74998 13.875V11.1113C8.74998 10.8149 8.86771 10.5306 9.07728 10.3211C9.28685 10.1115 9.57108 9.99374 9.86746 9.99374H10.1325C10.4289 9.99374 10.7131 10.1115 10.9227 10.3211C11.1323 10.5306 11.25 10.8149 11.25 11.1113V13.875C11.25 14.1721 11.1325 14.4571 10.9231 14.6679C10.7138 14.8786 10.4296 14.998 10.1325 15Z" fill="url(#gradient)"/>
  </g>
</svg>
