<svg width="50" height="50" viewBox="0 0 20 20" fill="none" xmlns="http://www.w3.org/2000/svg">
  <defs>
    <linearGradient id="gradient" x1="0%" y1="0%" x2="100%" y2="100%">
      <stop offset="0%" style="stop-color:#35A2A7;" />
      <stop offset="100%" style="stop-color:#F05623;" />
    </linearGradient>
  </defs>
  <g clip-path="url(#clip0_101_6931)">
    <path fill-rule="evenodd" clip-rule="evenodd" d="M13.8043 4.26999V2C13.8029 1.47005 13.6085 0.962255 13.2637 0.587524C12.9188 0.212794 12.4515 0.00158273 11.9638 0H2.76087C2.27317 0.00158273 1.80584 0.212794 1.46098 0.587524C1.11612 0.962255 0.921746 1.47005 0.92029 2V4.26999C0.64151 4.44627 0.40997 4.69864 0.248552 5.00208C0.0871347 5.30552 0.0014391 5.64952 0 6V14C0.00145657 14.5299 0.195832 15.0377 0.540693 15.4125C0.885553 15.7872 1.35288 15.9984 1.84058 16H12.8841C13.3718 15.9984 13.8391 15.7872 14.1839 15.4125C14.5288 15.0377 14.7232 14.5299 14.7246 14V6C14.7232 5.64952 14.6375 5.30552 14.4761 5.00208C14.3147 4.69864 14.0831 4.44627 13.8043 4.26999ZM2.76087 2H11.9638V5.53101L7.36232 9.698L2.76087 5.53101V2ZM12.8841 14H1.84058V7.29999L6.77332 11.766C6.93868 11.9157 7.14711 11.9976 7.36232 11.9976C7.57753 11.9976 7.78595 11.9157 7.95132 11.766L12.8841 7.29999V14ZM5.52174 6H9.2029C9.44697 6 9.68104 5.89463 9.85363 5.70709C10.0262 5.51956 10.1232 5.26522 10.1232 5C10.1232 4.73478 10.0262 4.48044 9.85363 4.29291C9.68104 4.10537 9.44697 4 9.2029 4H5.52174C5.27766 4 5.0436 4.10537 4.87101 4.29291C4.69842 4.48044 4.60145 4.73478 4.60145 5C4.60145 5.26522 4.69842 5.51956 4.87101 5.70709C5.0436 5.89463 5.27766 6 5.52174 6Z" fill="url(#gradient)"/>
  </g>
  <defs>
    <clipPath id="clip0_101_6931">
      <rect width="14.7246" height="16" fill="white"/>
    </clipPath>
  </defs>
</svg>
