<svg width="50" height="50" viewBox="0 0 20 20" fill="none" xmlns="http://www.w3.org/2000/svg">
<g clip-path="url(#clip0_101_6906)">
<path fill-rule="evenodd" clip-rule="evenodd" d="M18.75 5.33749V2.5C18.748 1.83757 18.484 1.20282 18.0156 0.734406C17.5472 0.265993 16.9124 0.00197841 16.25 0H3.75C3.08757 0.00197841 2.45282 0.265993 1.98441 0.734406C1.51599 1.20282 1.25198 1.83757 1.25 2.5V5.33749C0.871342 5.55784 0.556849 5.87329 0.337601 6.25259C0.118352 6.63189 0.00195469 7.0619 0 7.5V17.5C0.00197841 18.1624 0.265993 18.7972 0.734406 19.2656C1.20282 19.734 1.83757 19.998 2.5 20H17.5C18.1624 19.998 18.7972 19.734 19.2656 19.2656C19.734 18.7972 19.998 18.1624 20 17.5V7.5C19.998 7.0619 19.8816 6.63189 19.6624 6.25259C19.4432 5.87329 19.1287 5.55784 18.75 5.33749ZM3.75 2.5H16.25V6.91376L10 12.1225L3.75 6.91376V2.5ZM17.5 17.5H2.5V9.12498L9.19998 14.7075C9.42459 14.8946 9.70768 14.997 10 14.997C10.2923 14.997 10.5754 14.8946 10.8 14.7075L17.5 9.12498V17.5ZM7.5 7.5H12.5C12.8315 7.5 13.1494 7.36829 13.3839 7.13387C13.6183 6.89945 13.75 6.58152 13.75 6.25C13.75 5.91848 13.6183 5.60055 13.3839 5.36613C13.1494 5.13171 12.8315 5 12.5 5H7.5C7.16848 5 6.85055 5.13171 6.61613 5.36613C6.38171 5.60055 6.25 5.91848 6.25 6.25C6.25 6.58152 6.38171 6.89945 6.61613 7.13387C6.85055 7.36829 7.16848 7.5 7.5 7.5Z" fill="#FDFDFD"/>
</g>
<defs>
<clipPath id="clip0_101_6906">
<rect width="20" height="20" fill="white"/>
</clipPath>
</defs>
</svg>
