<svg width="50" height="50" viewBox="0 0 20 20" fill="none" xmlns="http://www.w3.org/2000/svg">
  <defs>
    <linearGradient id="gradient" x1="0%" y1="0%" x2="100%" y2="100%">
      <stop offset="0%" style="stop-color:#35A2A7; stop-opacity:1" />
      <stop offset="100%" style="stop-color:#F05623; stop-opacity:1" />
    </linearGradient>
    <clipPath id="clip0_101_6912">
      <rect width="20" height="20" fill="white"/>
    </clipPath>
  </defs>
  <g clip-path="url(#clip0_101_6912)">
    <path fill-rule="evenodd" clip-rule="evenodd" d="M17.5 0H2.5C1.83696 0 1.20107 0.26339 0.732231 0.732231C0.26339 1.20107 0 1.83696 0 2.5V12.5C0 13.163 0.26339 13.7989 0.732231 14.2678C1.20107 14.7366 1.83696 15 2.5 15H6.25V17.5H3.75C3.41848 17.5 3.10056 17.6317 2.86613 17.8661C2.63171 18.1005 2.5 18.4185 2.5 18.75C2.5 19.0815 2.63171 19.3995 2.86613 19.6339C3.10056 19.8683 3.41848 20 3.75 20H16.25C16.5815 20 16.8994 19.8683 17.1339 19.6339C17.3683 19.3995 17.5 19.0815 17.5 18.75C17.5 18.4185 17.3683 18.1005 17.1339 17.8661C16.8994 17.6317 16.5815 17.5 16.25 17.5H13.75V15H17.5C18.163 15 18.7989 14.7366 19.2678 14.2678C19.7366 13.7989 20 13.163 20 12.5V2.5C20 1.83696 19.7366 1.20107 19.2678 0.732231C18.7989 0.26339 18.163 0 17.5 0ZM11.25 17.5H8.75V15H11.25V17.5ZM17.5 12.5H2.5V2.5H17.5V12.5Z" fill="url(#gradient)"/>
  </g>
</svg>
