<svg width="50" height="50" viewBox="0 0 20 20" fill="none" xmlns="http://www.w3.org/2000/svg">
  <defs>
    <linearGradient id="gradient" x1="0%" y1="0%" x2="100%" y2="100%">
      <stop offset="0%" style="stop-color:#35A2A7;" />
      <stop offset="100%" style="stop-color:#F05623;" />
    </linearGradient>
  </defs>
  <path fill-rule="evenodd" clip-rule="evenodd" d="M12.5 15H7.5C7.16848 15 6.85055 14.8683 6.61613 14.6339C6.38171 14.3994 6.25 14.0815 6.25 13.75C6.25 13.4185 6.38171 13.1006 6.61613 12.8661C6.85055 12.6317 7.16848 12.5 7.5 12.5H12.5C12.8315 12.5 13.1494 12.6317 13.3839 12.8661C13.6183 13.1006 13.75 13.4185 13.75 13.75C13.75 14.0815 13.6183 14.3994 13.3839 14.6339C13.1494 14.8683 12.8315 15 12.5 15ZM12.5 11.25H7.5C7.16848 11.25 6.85055 11.1183 6.61613 10.8839C6.38171 10.6494 6.25 10.3315 6.25 10C6.25 9.66848 6.38171 9.35056 6.61613 9.11613C6.85055 8.88171 7.16848 8.75 7.5 8.75H12.5C12.8315 8.75 13.1494 8.88171 13.3839 9.11613C13.6183 9.35056 13.75 9.66848 13.75 10C13.75 10.3315 13.6183 10.6494 13.3839 10.8839C13.1494 11.1183 12.8315 11.25 12.5 11.25ZM12.5 0H3.75C3.08757 0.00197841 2.45282 0.265993 1.98441 0.734406C1.51599 1.20282 1.25198 1.83757 1.25 2.5V17.5C1.25198 18.1624 1.51599 18.7972 1.98441 19.2656C2.45282 19.734 3.08757 19.998 3.75 20H16.25C16.9124 19.998 17.5472 19.734 18.0156 19.2656C18.484 18.7972 18.748 18.1624 18.75 17.5V6.25C18.75 4.5924 18.0915 3.0027 16.9194 1.8306C15.7473 0.658495 14.1576 0 12.5 0ZM16.25 17.5H3.75V2.5H10V8.75H16.25V17.5ZM12.5 6.25V2.5C13.4936 2.50297 14.4457 2.89903 15.1484 3.60165C15.851 4.30427 16.247 5.25635 16.25 6.25H12.5Z" fill="url(#gradient)"/>
</svg>
