<svg width="50" height="50" viewBox="0 0 20 20" fill="none" xmlns="http://www.w3.org/2000/svg">
  <defs>
    <linearGradient id="gradient" x1="0%" y1="0%" x2="100%" y2="100%">
      <stop offset="0%" style="stop-color:#35A2A7;" />
      <stop offset="100%" style="stop-color:#F05623;" />
    </linearGradient>
  </defs>
  <g clip-path="url(#clip0_101_6904)">
    <path fill="url(#gradient)" d="M17.5 0H2.5C1.83696 0 1.20107 0.26339 0.732231 0.732231C0.26339 1.20107 0 1.83696 0 2.5V17.5C0 18.163 0.26339 18.7989 0.732231 19.2678C1.20107 19.7366 1.83696 20 2.5 20H17.5C18.163 20 18.7989 19.7366 19.2678 19.2678C19.7366 18.7989 20 18.163 20 17.5V2.5C20 1.83696 19.7366 1.20107 19.2678 0.732231C18.7989 0.26339 18.163 0 17.5 0ZM17.5 17.5H2.5V2.5H17.5V17.5ZM13.75 10L11.25 12.5L7.5 7.5L3.75 13.75H16.25L13.75 10ZM12.5 8.75C12.7472 8.75 12.9889 8.67669 13.1945 8.53933C13.4 8.40198 13.5602 8.20677 13.6548 7.97836C13.7495 7.74996 13.7742 7.49862 13.726 7.25615C13.6778 7.01367 13.5587 6.79093 13.3839 6.61612C13.2091 6.4413 12.9863 6.32225 12.7439 6.27401C12.5014 6.22578 12.2501 6.25055 12.0216 6.34516C11.7932 6.43977 11.598 6.59997 11.4607 6.80553C11.3233 7.0111 11.25 7.25277 11.25 7.5C11.25 7.83152 11.3817 8.14946 11.6161 8.38388C11.8505 8.61831 12.1685 8.75 12.5 8.75Z" />
  </g>
  <defs>
    <clipPath id="clip0_101_6904">
      <rect width="20" height="20" fill="white"/>
    </clipPath>
  </defs>
</svg>
