<svg width="50" height="50" viewBox="0 0 20 20" fill="none" xmlns="http://www.w3.org/2000/svg">
  <defs>
    <linearGradient id="gradient" x1="0%" y1="0%" x2="100%" y2="100%">
      <stop offset="0%" style="stop-color:#35A2A7; stop-opacity:1" />
      <stop offset="100%" style="stop-color:#F05623; stop-opacity:1" />
    </linearGradient>
    <clipPath id="clip0_101_6907">
      <rect width="20" height="20" fill="white"/>
    </clipPath>
  </defs>
  <g clip-path="url(#clip0_101_6907)">
    <path fill-rule="evenodd" clip-rule="evenodd" d="M20 13.7501C20.0005 12.7274 19.7501 11.7202 19.2706 10.8169C18.7912 9.9135 18.0973 9.14161 17.25 8.56889C17.7337 8.09942 18.1175 7.53698 18.3783 6.91541C18.6391 6.29384 18.7715 5.62596 18.7675 4.95191C18.7636 4.27786 18.6235 3.61156 18.3555 2.99306C18.0875 2.37456 17.6972 1.81667 17.2081 1.35285C16.719 0.889039 16.1411 0.528881 15.5093 0.294086C14.8774 0.0592898 14.2046 -0.0453113 13.5313 -0.0134554C12.858 0.0184005 12.1981 0.186078 11.5913 0.47948C10.9844 0.772882 10.4431 1.18597 10 1.69389C9.55686 1.18597 9.01559 0.772882 8.40874 0.47948C7.80188 0.186078 7.14197 0.0184005 6.46866 -0.0134554C5.79535 -0.0453113 5.12258 0.0592898 4.49074 0.294086C3.85889 0.528881 3.28102 0.889039 2.7919 1.35285C2.30279 1.81667 1.91251 2.37456 1.64452 2.99306C1.37653 3.61156 1.23637 4.27786 1.23245 4.95191C1.22854 5.62596 1.36092 6.29384 1.6217 6.91541C1.88249 7.53698 2.26632 8.09942 2.75002 8.56889C1.90271 9.14161 1.20884 9.9135 0.729371 10.8169C0.249906 11.7202 -0.000518023 12.7274 8.04537e-07 13.7501C8.04537e-07 14.5001 0.336264 16.6564 3.95126 17.3089C4.39126 18.4764 5.77125 20.0001 10 20.0001C14.2288 20.0001 15.6087 18.4764 16.0487 17.3089C19.6637 16.6564 20 14.5001 20 13.7501ZM16.25 5.00012C16.2473 5.44292 16.127 5.87704 15.9014 6.2581C15.6759 6.63915 15.3532 6.95344 14.9663 7.16886C14.9089 6.30206 14.6259 5.46536 14.1452 4.74176C13.6646 4.01815 13.003 3.43283 12.2263 3.04387C12.6581 2.69557 13.1952 2.5039 13.75 2.50012C14.4124 2.5021 15.0472 2.76612 15.5156 3.23453C15.984 3.70294 16.248 4.33769 16.25 5.00012ZM10 10.0001C9.50555 10.0001 9.02219 9.85349 8.61107 9.57879C8.19995 9.30409 7.8795 8.91367 7.69028 8.45685C7.50106 8.00004 7.4516 7.49737 7.54807 7.01242C7.64453 6.52746 7.88264 6.08199 8.23227 5.73236C8.5819 5.38272 9.0273 5.14461 9.51225 5.04815C9.99721 4.95169 10.4999 5.00122 10.9567 5.19044C11.4135 5.37966 11.804 5.70007 12.0787 6.11119C12.3534 6.52232 12.5 7.00567 12.5 7.50012C12.5 8.16317 12.2366 8.79905 11.7677 9.26789C11.2989 9.73673 10.663 10.0001 10 10.0001ZM6.25 2.50012C6.80508 2.50461 7.34224 2.69719 7.77374 3.04639C6.99684 3.43515 6.33517 4.0204 5.85449 4.74404C5.37382 5.46769 5.09085 6.30452 5.03372 7.17137C4.54859 6.9043 4.16638 6.48312 3.94745 5.97444C3.72852 5.46575 3.68538 4.89861 3.82492 4.36269C3.96446 3.82676 4.27866 3.35263 4.71787 3.0153C5.15707 2.67797 5.69622 2.4967 6.25 2.50012ZM3.94753 14.7651C2.52253 14.3989 2.5 13.7501 2.5 13.7501C2.5003 12.8484 2.82693 11.9773 3.4195 11.2977C4.01206 10.6181 4.83049 10.1758 5.72372 10.0526C5.94076 10.4236 6.20458 10.7652 6.50871 11.0689C5.22688 11.9415 4.31432 13.2585 3.94753 14.7651ZM10 17.5001C6.25 17.5001 6.25 16.2501 6.25 16.2501C6.25 15.2556 6.64507 14.3018 7.34833 13.5985C8.05159 12.8952 9.00544 12.5001 10 12.5001C10.9946 12.5001 11.9484 12.8952 12.6517 13.5985C13.3549 14.3018 13.75 15.2556 13.75 16.2501C13.75 16.2501 13.75 17.5001 10 17.5001ZM16.0525 14.7651C15.6857 13.2585 14.7731 11.9415 13.4913 11.0689C13.7954 10.7652 14.0592 10.4236 14.2763 10.0526C15.1695 10.1758 15.9879 10.6181 16.5805 11.2977C17.1731 11.9773 17.4997 12.8484 17.5 13.7501C17.5 13.7501 17.4775 14.3989 16.0525 14.7651Z" fill="url(#gradient)"/>
  </g>
</svg>
