<svg width="50" height="50" viewBox="0 0 20 20" fill="none" xmlns="http://www.w3.org/2000/svg">
  <defs>
    <linearGradient id="gradient" x1="0%" y1="0%" x2="100%" y2="100%">
      <stop offset="0%" style="stop-color:#35A2A7; stop-opacity:1" />
      <stop offset="100%" style="stop-color:#F05623; stop-opacity:1" />
    </linearGradient>
    <clipPath id="clip0_101_6908">
      <rect width="20" height="20" fill="white"/>
    </clipPath>
  </defs>
  <g clip-path="url(#clip0_101_6908)">
    <path fill-rule="evenodd" clip-rule="evenodd" d="M19.868 16.6787C19.3842 15.3904 18.6424 14.2144 17.6881 13.2229C16.7337 12.2314 15.5869 11.4452 14.318 10.9125C15.0081 10.3458 15.5654 9.63448 15.9505 8.82885C16.3356 8.02323 16.5391 7.14287 16.5468 6.24997C16.5219 4.68511 15.9179 3.18504 14.8515 2.03949C13.7852 0.89395 12.3321 0.184225 10.773 0.0474583C10.2625 -0.0158194 9.7461 -0.0158194 9.23556 0.0474583C7.67739 0.185394 6.22552 0.895633 5.1602 2.04106C4.09488 3.18648 3.49159 4.6859 3.46678 6.24997C3.4742 7.14292 3.67767 8.02334 4.06279 8.82901C4.44791 9.63467 5.00531 10.3459 5.69556 10.9125C4.42637 11.445 3.27931 12.231 2.32474 13.2226C1.37016 14.2141 0.628181 15.3902 0.144293 16.6787C0.00779766 17.0554 -0.0327227 17.4602 0.0264193 17.8566C0.0855612 18.2529 0.242498 18.6282 0.483039 18.9487C0.732649 19.2779 1.0556 19.5443 1.42622 19.7268C1.79685 19.9093 2.20494 20.0028 2.61805 20H17.4043C17.817 20.0027 18.2247 19.9091 18.5949 19.7266C18.9651 19.5441 19.2876 19.2778 19.5368 18.9487C19.7767 18.6279 19.9327 18.2522 19.9905 17.8558C20.0484 17.4593 20.0063 17.0547 19.868 16.6787ZM6.08305 6.24997C6.10033 5.30217 6.47076 4.39494 7.12183 3.70594C7.77291 3.01695 8.65772 2.5958 9.60303 2.52495C9.87242 2.49162 10.1449 2.49162 10.4143 2.52495C11.1252 2.63395 11.79 2.94454 12.3298 3.41984C12.8697 3.89514 13.2619 4.51526 13.46 5.20668C13.6582 5.89811 13.6539 6.63183 13.4477 7.3209C13.2415 8.00997 12.8421 8.62548 12.2968 9.09447C11.7515 9.56346 11.0832 9.86625 10.371 9.96697C9.65884 10.0677 8.9327 9.96208 8.27872 9.66271C7.62473 9.36333 7.07032 8.88273 6.68116 8.27786C6.292 7.67298 6.08443 6.96921 6.08305 6.24997ZM2.61553 17.5C3.20793 16.0238 4.22867 14.7588 5.54629 13.8678C6.8639 12.9768 8.41809 12.5007 10.0087 12.5007C11.5993 12.5007 13.1534 12.9768 14.471 13.8678C15.7887 14.7588 16.8094 16.0238 17.4018 17.5H2.61805H2.61553Z" fill="url(#gradient)"/>
  </g>
</svg>
