<svg width="50" height="50" viewBox="0 0 20 20" fill="none" xmlns="http://www.w3.org/2000/svg">
  <defs>
    <linearGradient id="gradient" x1="0%" y1="0%" x2="100%" y2="100%">
      <stop offset="0%" style="stop-color:#35A2A7; stop-opacity:1" />
      <stop offset="100%" style="stop-color:#F05623; stop-opacity:1" />
    </linearGradient>
    <clipPath id="clip0_101_6910">
      <rect width="20" height="20" fill="white"/>
    </clipPath>
  </defs>
  <g clip-path="url(#clip0_101_6910)">
    <path fill-rule="evenodd" clip-rule="evenodd" d="M16.25 7.11251V6.25C16.248 5.58757 15.984 4.95283 15.5156 4.48442C15.0472 4.01601 14.4124 3.75198 13.75 3.75H12.875C12.7857 3.19901 12.5859 2.67177 12.2875 2.20001C11.8254 1.52198 11.2046 0.967121 10.4791 0.583662C9.75369 0.200203 8.94555 -0.000244141 8.125 -0.000244141C7.30445 -0.000244141 6.49631 0.200203 5.77087 0.583662C5.04543 0.967121 4.42463 1.52198 3.96248 2.20001C3.66413 2.67177 3.46432 3.19901 3.37502 3.75H2.5C1.83757 3.75198 1.20282 4.01601 0.734406 4.48442C0.265993 4.95283 0.00197841 5.58757 0 6.25V10C0.00396435 10.1953 0.0508919 10.3874 0.137482 10.5625C0.245836 10.7817 0.417042 10.9637 0.629196 11.0852C0.84135 11.2067 1.08485 11.2624 1.32874 11.245C1.49712 11.233 1.66153 11.188 1.81252 11.1125C2.03302 11.0038 2.26317 10.9159 2.5 10.85C2.66848 10.785 2.85202 10.7693 3.0291 10.8047C3.20618 10.8401 3.36948 10.9252 3.49998 11.05C3.66491 11.2935 3.75305 11.5809 3.75305 11.875C3.75305 12.1691 3.66491 12.4565 3.49998 12.7C3.36948 12.8248 3.20618 12.9099 3.0291 12.9453C2.85202 12.9807 2.66848 12.965 2.5 12.9C2.26317 12.8341 2.03302 12.7462 1.81252 12.6375C1.66175 12.5614 1.49722 12.5164 1.32874 12.505C1.08482 12.4875 0.84123 12.543 0.629044 12.6646C0.416857 12.7862 0.245703 12.9682 0.137482 13.1875C0.0508919 13.3626 0.00396435 13.5547 0 13.75V17.5C0.00197841 18.1624 0.265993 18.7972 0.734406 19.2656C1.20282 19.734 1.83757 19.998 2.5 20H13.75C14.4124 19.998 15.0472 19.734 15.5156 19.2656C15.984 18.7972 16.248 18.1624 16.25 17.5V16.6375C17.3191 16.3799 18.2705 15.7702 18.951 14.9063C19.6314 14.0424 20.0014 12.9747 20.0014 11.875C20.0014 10.7753 19.6314 9.7076 18.951 8.84372C18.2705 7.97985 17.3191 7.37006 16.25 7.11251ZM15.4125 14.2C14.8313 14.1784 14.2627 14.0245 13.75 13.75V17.5H2.5V15.4375C2.6375 15.45 2.77502 15.4625 2.91252 15.4625C3.39671 15.4629 3.87504 15.3568 4.31358 15.1515C4.75213 14.9463 5.14009 14.647 5.44998 14.275C5.97315 13.5843 6.25633 12.7415 6.25633 11.875C6.25633 11.0085 5.97315 10.1657 5.44998 9.47501C5.09737 9.04799 4.64069 8.719 4.12399 8.51977C3.60729 8.32053 3.04801 8.25776 2.5 8.3375V6.25H6.25C5 3.75 6.5625 2.5 8.125 2.5C9.6875 2.5 11.25 3.75 10 6.25H13.75V10C14.2627 9.72553 14.8313 9.57162 15.4125 9.55C18.2 9.55 18.2 14.2 15.4125 14.2Z" fill="url(#gradient)"/>
  </g>
</svg>
