<svg width="15" height="16" viewBox="0 0 15 16" fill="none" xmlns="http://www.w3.org/2000/svg">
<path fill-rule="evenodd" clip-rule="evenodd" d="M13.8043 3H10.1232V2C10.1232 1.46957 9.92927 0.960888 9.5841 0.585815C9.23892 0.210743 8.77076 0 8.28261 0H6.44203C5.95388 0 5.48572 0.210743 5.14054 0.585815C4.79537 0.960888 4.60145 1.46957 4.60145 2V3H0.92029C0.676214 3 0.442134 3.10537 0.269546 3.29291C0.0969581 3.48044 0 3.73478 0 4C0 4.26522 0.0969581 4.51956 0.269546 4.70709C0.442134 4.89463 0.676214 5 0.92029 5H1.84058V14C1.84058 14.5304 2.0345 15.0391 2.37967 15.4142C2.72485 15.7893 3.19301 16 3.68116 16H11.0435C11.5316 16 11.9998 15.7893 12.345 15.4142C12.6901 15.0391 12.8841 14.5304 12.8841 14V5H13.8043C14.0484 5 14.2825 4.89463 14.4551 4.70709C14.6277 4.51956 14.7246 4.26522 14.7246 4C14.7246 3.73478 14.6277 3.48044 14.4551 3.29291C14.2825 3.10537 14.0484 3 13.8043 3ZM6.44203 2H8.28261V3H6.44203V2ZM11.0435 14H3.68116V5H11.0435V14Z" fill="#FDFDFD"/>
</svg>
