<?xml version="1.0" encoding="UTF-8"?>
<svg version="1.1" xmlns="http://www.w3.org/2000/svg" width="1081" height="530">
<path d="M0 0 C27.97202427 23.45039752 41.20390306 55.55982829 44.75 91.5 C46.44863659 117.54576107 42.5377393 141.85974451 31.0625 165.375 C30.57910156 166.37015625 30.09570312 167.3653125 29.59765625 168.390625 C21.3153082 184.45057967 7.82464211 200.23883729 -7.9375 209.375 C-8.76725342 209.85743164 -8.76725342 209.85743164 -9.61376953 210.34960938 C-31.26445673 222.68176676 -55.74882836 226.49636569 -79.96875 220.40625 C-91.01791882 217.36345423 -101.34498989 212.45769277 -110.65014648 205.74609375 C-111.26913315 205.30064209 -111.88811981 204.85519043 -112.52586365 204.39624023 C-113.22462364 203.89072632 -113.22462364 203.89072632 -113.9375 203.375 C-113.93083817 204.3255426 -113.92417633 205.27608521 -113.91731262 206.25543213 C-113.85622891 215.25793707 -113.81139738 224.2603994 -113.78206348 233.26306534 C-113.76647515 237.89030921 -113.74536328 242.51738441 -113.71118164 247.14453125 C-113.67834248 251.61846298 -113.66059575 256.0922335 -113.65286827 260.56627655 C-113.64736848 262.26452925 -113.63663006 263.96277415 -113.62030983 265.66095734 C-113.49369373 279.39473495 -113.83775475 292.75381192 -123.7578125 303.3125 C-131.11138499 310.2335094 -137.7894473 311.9448419 -147.78857422 311.93554688 C-156.25938285 311.59584553 -163.64410425 308.26897301 -169.4375 302 C-174.09140153 295.80852628 -177.05494442 289.397304 -177.07172108 281.60314083 C-177.07617892 280.64054315 -177.08063676 279.67794546 -177.08522969 278.68617815 C-177.08504533 277.6314311 -177.08486097 276.57668405 -177.08467102 275.48997498 C-177.09018605 273.80589959 -177.09018605 273.80589959 -177.0958125 272.08780247 C-177.10685832 268.31170422 -177.11069473 264.53563348 -177.11450195 260.75952148 C-177.12023395 258.05759953 -177.12739991 255.3556817 -177.13441467 252.65376282 C-177.15416689 244.53517676 -177.16424418 236.41658948 -177.17314246 228.2979854 C-177.17752781 224.47251641 -177.18289402 220.64704879 -177.18813133 216.82158089 C-177.20514315 204.1005949 -177.21963625 191.37960977 -177.22688007 178.65861416 C-177.2287899 175.35826555 -177.23071024 172.05791694 -177.23266602 168.75756836 C-177.23314976 167.9373061 -177.2336335 167.11704385 -177.2341319 166.27192516 C-177.24242823 152.99085563 -177.26775863 139.70987628 -177.30024669 126.42884611 C-177.33334698 112.78602484 -177.35133156 99.14324936 -177.35452431 85.50038773 C-177.35668678 77.84348302 -177.36539655 70.18670979 -177.39098549 62.52984428 C-177.4127332 56.00738576 -177.42072302 49.48509065 -177.41101871 42.96259999 C-177.40648546 39.63754347 -177.41050108 36.31309615 -177.42778015 32.98804092 C-177.44550326 29.37471518 -177.43838959 25.76223734 -177.42524719 22.14891052 C-177.43621644 21.10977853 -177.44718568 20.07064653 -177.45848733 19.00002569 C-177.36638741 8.47240533 -174.40810489 -0.10769975 -167.09765625 -7.74609375 C-158.86121131 -14.91016249 -149.37615775 -15.253951 -139.00048828 -14.79980469 C-131.94060954 -14.20159484 -126.29130463 -10.9942131 -121.54296875 -5.83984375 C-118.36382706 -1.45402054 -116.14640879 3.44743424 -113.9375 8.375 C-113.51339844 7.86710937 -113.08929688 7.35921875 -112.65234375 6.8359375 C-84.92212973 -25.70897302 -32.77444359 -25.20709595 0 0 Z M-99.625 54.9375 C-113.05801314 71.44363171 -115.39021522 91.86788779 -113.9375 112.375 C-113.42746284 117.18699619 -112.36657591 121.75219979 -110.9375 126.375 C-110.60878906 127.45652344 -110.28007812 128.53804688 -109.94140625 129.65234375 C-105.77551401 141.77523432 -98.94157242 152.49992423 -87.9375 159.375 C-87.29167969 159.78234375 -86.64585937 160.1896875 -85.98046875 160.609375 C-76.13428707 166.1440922 -64.85250221 166.27243204 -54.0859375 163.69140625 C-40.35239764 159.33922813 -31.90303046 148.9129919 -25.1875 136.625 C-16.0964213 117.12217914 -15.7362442 94.44322455 -22.88964844 74.26831055 C-27.98525294 61.14865155 -36.89960805 49.30857528 -49.8203125 43.1640625 C-68.12365271 36.34252242 -86.21493751 41.02083514 -99.625 54.9375 Z " fill="#FFFFFF" transform="translate(373.9375,117.625)"/>
<path d="M0 0 C3.61111936 2.18133606 6.53530195 4.55486234 9.25 7.8125 C9.67925781 8.29074219 10.10851562 8.76898438 10.55078125 9.26171875 C17.96471232 18.29403006 17.69654501 30.56535798 17.68237305 41.66894531 C17.69141195 43.11898115 17.70174431 44.5690094 17.71325684 46.01902771 C17.74060347 49.9169739 17.7500806 53.81477425 17.75611091 57.71280384 C17.76555337 61.80076072 17.79176104 65.88861113 17.81611633 69.97650146 C17.85962461 77.70030296 17.88826746 85.4240836 17.91143972 93.14796996 C17.93857589 101.94862631 17.98248187 110.7491747 18.02772844 119.54975367 C18.12034999 137.63727861 18.19213316 155.72483213 18.25 173.8125 C18.78399414 173.27270508 19.31798828 172.73291016 19.86816406 172.17675781 C20.57682617 171.46358398 21.28548828 170.75041016 22.015625 170.015625 C22.71461914 169.31083008 23.41361328 168.60603516 24.13378906 167.87988281 C26.03275398 166.02473342 27.97511616 164.27772588 30 162.5625 C35.72228251 157.63373714 40.94794115 152.18328924 46.25 146.8125 C52.11689094 140.86955677 57.94643997 134.96653003 64.30566406 129.54296875 C69.12695615 125.25199457 73.53136413 120.48507624 78.0078125 115.83984375 C87.99377841 105.67439153 98.23079365 97.76242111 112.875 97.3125 C121.39597042 97.58681696 126.11859357 99.33368745 132 105.4375 C137.96206664 112.84574299 139.98758175 120.1713717 139.62109375 129.64453125 C138.1496171 142.20629506 129.62121938 150.19964068 120.34765625 158.03515625 C117.93561794 160.07887586 115.59361411 162.19072417 113.25 164.3125 C110.26937279 167.00233431 107.27754767 169.67560364 104.25 172.3125 C98.63530912 177.20562418 93.12178443 182.21179847 87.6015625 187.2109375 C83.2208077 191.17071887 78.82598073 195.07946309 74.25 198.8125 C78.06251791 207.3956555 85.76113485 214.43162569 92.015625 221.30078125 C94.25134533 223.81401232 96.38377682 226.38561479 98.5 229 C103.71386438 235.43798906 109.16041253 241.66413566 114.59912109 247.91162109 C122.46297095 256.96632901 130.2445805 266.09518747 137.95507812 275.28076172 C139.22400731 276.78175375 140.5102906 278.26801967 141.796875 279.75390625 C149.82245974 289.18265695 154.05541376 297.51348575 153.06640625 310.16015625 C151.85494858 317.24156348 148.52898536 324.01266215 143.03125 328.70703125 C134.9282388 334.25759393 126.53882858 336.95802369 116.6875 335.25 C102.56507603 331.4411501 92.7045014 317.71806328 84.19921875 306.6171875 C80.98370027 302.43142222 77.62141754 298.37300641 74.25 294.3125 C69.94526861 289.1185831 65.7033313 283.88802965 61.5625 278.5625 C57.55029452 273.40489472 53.40106047 268.38789655 49.15893555 263.41821289 C45.85426098 259.54297253 42.64648209 255.60511479 39.484375 251.61328125 C37.69500569 249.37031307 35.89223949 247.14084523 34.078125 244.91796875 C33.5094873 244.22098877 32.94084961 243.52400879 32.35498047 242.8059082 C31.23541543 241.43497032 30.11472106 240.06495359 28.99267578 238.69604492 C28.46657715 238.05127197 27.94047852 237.40649902 27.3984375 236.7421875 C26.93614746 236.17741699 26.47385742 235.61264648 25.99755859 235.03076172 C23.35178818 231.67235574 20.80548473 228.23986438 18.25 224.8125 C18.24413376 225.77779129 18.23826752 226.74308258 18.23222351 227.73762512 C18.17479544 236.87308372 18.10193044 246.00830886 18.01428509 255.14352894 C17.96972206 259.83907641 17.93043562 264.53453992 17.90356445 269.23022461 C17.87739026 273.76914986 17.83689003 278.30774955 17.78681374 282.84647179 C17.77023987 284.57060355 17.75866697 286.29479149 17.75238609 288.01899147 C17.69193413 303.10040602 16.44807234 315.23312197 5.5625 326.625 C-3.4672482 332.58804126 -12.53466864 334.06613823 -23.15625 332.4453125 C-30.90445511 330.4536964 -37.2112126 324.78625419 -41.45703125 318.140625 C-44.24260683 312.71397055 -45.8713727 308.05322212 -45.88422108 301.93131924 C-45.88867892 300.94433778 -45.89313676 299.95735633 -45.89772969 298.94046634 C-45.89754533 297.85848266 -45.89736097 296.77649897 -45.89717102 295.66172791 C-45.90084771 294.51042611 -45.9045244 293.35912432 -45.9083125 292.17293459 C-45.9174301 288.9765569 -45.92204702 285.78020939 -45.92470181 282.58382094 C-45.92860912 279.13646946 -45.93818722 275.68913278 -45.94691467 272.24179077 C-45.96666803 263.91556462 -45.9767443 255.58933728 -45.98564246 247.26309356 C-45.9900276 243.33999718 -45.99539386 239.41690215 -46.00063133 235.49380684 C-46.01764322 222.4485588 -46.03213641 209.40331159 -46.03938007 196.35805416 C-46.0412899 192.97348466 -46.04321024 189.58891517 -46.04516602 186.2043457 C-46.04564976 185.36314914 -46.0461335 184.52195258 -46.0466319 183.65526522 C-46.05492854 170.03470413 -46.08025945 156.41423097 -46.11274669 142.79370826 C-46.14584456 128.80284321 -46.16383134 114.81202281 -46.16702431 100.82111841 C-46.16918699 92.96859539 -46.17789997 85.11620055 -46.20348549 77.26371574 C-46.22522988 70.57473831 -46.23322464 63.88592021 -46.22351871 57.19691145 C-46.21898462 53.78687261 -46.22080745 50.37716225 -46.24028015 46.96716881 C-46.25799699 43.2618896 -46.25089258 39.55743777 -46.23774719 35.85215759 C-46.24871644 34.78578896 -46.25968568 33.71942033 -46.27098733 32.62073749 C-46.18069283 22.04290346 -43.1385505 12.57135971 -35.75 4.8125 C-26.43317407 -3.43173423 -11.31547043 -5.41915602 0 0 Z " fill="#FFFFFF" transform="translate(920.75,5.1875)"/>
<path d="M0 0 C3.40134013 2.92538143 6.63221476 6.00713335 9.8125 9.16992188 C11.09208357 10.43235638 12.40690427 11.65883368 13.72558594 12.88037109 C28.18086198 26.51034591 37.9570975 45.59778536 43.23339844 64.57177734 C43.55179688 65.64041016 43.87019531 66.70904297 44.19824219 67.81005859 C46.14745329 75.31047921 46.5642911 82.59675118 46.67089844 90.32177734 C46.69321533 91.28019531 46.71553223 92.23861328 46.73852539 93.22607422 C46.71580858 100.3431883 45.57319799 107.53836453 40.89208984 113.19165039 C33.14066846 120.13397054 25.2845534 119.99416799 15.40356445 119.91235352 C14.00353514 119.91150635 12.60350449 119.91198413 11.20347595 119.91368103 C7.41876922 119.91453892 3.63434991 119.89694681 -0.15029025 119.87595916 C-4.11141409 119.85715784 -8.07254509 119.8554392 -12.03370667 119.85188293 C-19.52755551 119.84257259 -27.02127247 119.81797257 -34.51506335 119.78783447 C-43.04950657 119.75425892 -51.58395622 119.73779653 -60.11844909 119.72274816 C-77.66790943 119.69142205 -95.21724153 119.63868131 -112.76660156 119.57177734 C-112.00979168 121.94940439 -111.24426674 124.32363037 -110.47363281 126.69677734 C-110.15755066 127.69451172 -110.15755066 127.69451172 -109.83508301 128.71240234 C-105.59829759 141.67291556 -97.9811917 149.98807084 -86.07910156 156.32177734 C-77.01715026 160.75233351 -68.23216315 162.5293192 -58.20410156 163.00927734 C-48.72572335 163.50865471 -39.36274234 165.33211063 -32.76660156 172.57177734 C-27.44727379 180.550769 -25.42978903 188.34808392 -27.19238281 197.87255859 C-29.40507725 205.73237504 -34.1483756 211.38438967 -41.20410156 215.44677734 C-59.49943268 223.55056515 -84.57748331 219.41952894 -102.85644531 212.81689453 C-131.87542688 201.53623829 -153.9832359 181.31903833 -167.06713867 153.13061523 C-174.42221082 136.38657414 -177.19078876 118.76375232 -177.14160156 100.57177734 C-177.14139008 99.84766663 -177.14117859 99.12355591 -177.14096069 98.37750244 C-177.1061236 86.39189167 -176.05453447 75.13027375 -172.76660156 63.57177734 C-172.59531738 62.92225098 -172.4240332 62.27272461 -172.24755859 61.60351562 C-167.95229467 45.52412703 -159.47102121 30.24853562 -148.76660156 17.57177734 C-147.92484375 16.56759766 -147.08308594 15.56341797 -146.21582031 14.52880859 C-110.48362446 -26.84049429 -43.24987303 -34.96569337 0 0 Z M-97.76660156 43.57177734 C-98.68505859 44.43029297 -98.68505859 44.43029297 -99.62207031 45.30615234 C-107.59520841 53.54330164 -113.76660156 66.03053708 -113.76660156 77.57177734 C-81.75660156 77.57177734 -49.74660156 77.57177734 -16.76660156 77.57177734 C-18.65624992 62.45459052 -24.63851211 49.24097061 -36.76660156 39.57177734 C-56.08114993 27.82712358 -80.74702713 27.33667228 -97.76660156 43.57177734 Z " fill="#FFFFFF" transform="translate(607.7666015625,121.42822265625)"/>
<path d="M0 0 C7.3254801 6.32387291 13.18212959 13.34344927 13.9296875 23.27734375 C14.10806845 34.64912913 12.0628241 41.18781656 4.0390625 49.46875 C-1.56574914 54.5812471 -7.27599293 55.3017227 -14.640625 55.1171875 C-20.93857903 54.18265239 -26.33111613 51.36696612 -32.00927734 48.63525391 C-36.16085467 46.69689615 -40.40163511 44.98259471 -44.6484375 43.265625 C-45.85995483 42.75999023 -45.85995483 42.75999023 -47.09594727 42.24414062 C-57.35146346 38.09287372 -67.52575522 35.77573316 -78.19140625 39.6640625 C-82.02400866 41.34666844 -84.5169802 43.24531928 -86.5859375 46.890625 C-87.79856946 51.63091358 -87.92399324 55.12915993 -85.8984375 59.640625 C-76.53923409 70.1140193 -59.79726417 74.62344599 -47.01513672 79.53491211 C-23.79697718 88.48476538 3.47922889 99.47179718 14.7265625 123.578125 C20.88784962 140.146458 22.12444803 158.3229512 14.9921875 174.84375 C6.18848241 193.69694685 -8.1281171 207.94622623 -27.78125 215.3359375 C-59.93342451 226.75921793 -94.45405499 223.90643441 -125.2734375 209.578125 C-137.61316806 203.52615524 -148.55911632 195.91661927 -155.2734375 183.578125 C-157.58650038 176.63893635 -157.31278947 168.80566709 -154.1484375 162.203125 C-149.8354375 154.74018119 -144.9079266 148.60797896 -136.37109375 145.99609375 C-122.29678025 143.19171471 -109.6459947 149.49110608 -97.6484375 156.140625 C-86.76088685 162.1705494 -77.15748554 166.14060459 -64.5859375 165.953125 C-63.40161133 165.97052734 -63.40161133 165.97052734 -62.19335938 165.98828125 C-56.58931045 165.9605613 -52.37827726 164.91830866 -47.2734375 162.578125 C-42.98163872 158.06623397 -41.88518855 154.96990132 -42.01171875 148.88671875 C-42.44097627 145.10028301 -43.67888322 143.35800458 -46.2734375 140.578125 C-53.29299391 135.65535259 -60.95713098 132.44356063 -68.8984375 129.328125 C-71.29185789 128.36766389 -73.68508311 127.40671628 -76.078125 126.4453125 C-79.59192578 125.04375618 -83.1066028 123.64444045 -86.62207031 122.24707031 C-104.85897193 114.96668249 -120.38783575 107.65717941 -134.2734375 93.578125 C-134.89992187 92.95035156 -135.52640625 92.32257813 -136.171875 91.67578125 C-145.7859972 81.30521797 -148.79946788 67.930108 -148.6484375 54.203125 C-148.66003906 53.15640625 -148.67164063 52.1096875 -148.68359375 51.03125 C-148.61782541 33.27379846 -141.77466449 17.21254619 -129.2734375 4.578125 C-96.04021425 -25.11779065 -35.94847606 -27.82965101 0 0 Z " fill="#FFFFFF" transform="translate(156.2734375,118.421875)"/>
<path d="M0 0 C5.95115299 5.43912197 10.51190337 10.94603742 11.30859375 19.1953125 C11.69199394 29.95375415 9.30196968 37.9037879 2.578125 46.30859375 C-1.31140672 50.47732453 -5.37857933 52.62710124 -10.97265625 53.203125 C-22.04259558 53.4514227 -32.39933791 48.92954099 -42.73925781 45.42553711 C-43.61807617 45.12784424 -44.49689453 44.83015137 -45.40234375 44.5234375 C-46.58558228 44.1200415 -46.58558228 44.1200415 -47.79272461 43.70849609 C-60.52285189 39.62235193 -74.2390842 41.49991971 -86.00390625 47.54296875 C-99.4468119 55.53555347 -106.44133735 68.05925595 -110.375 82.875 C-115.07052564 102.33935844 -113.64689376 123.13749068 -103.40234375 140.74609375 C-101.71074309 143.27771478 -99.92720738 145.64362459 -98 148 C-97.42765625 148.70898438 -96.8553125 149.41796875 -96.265625 150.1484375 C-88.40214302 158.91924433 -76.67797913 164.18851818 -65 165 C-56.36200248 164.89297507 -48.84411213 163.01279704 -40.75 160.125 C-39.72648438 159.77308594 -38.70296875 159.42117188 -37.6484375 159.05859375 C-33.27358431 157.54595171 -28.935318 155.98057052 -24.6328125 154.2734375 C-17.52630078 151.78233769 -10.58911247 151.89059773 -3.6875 155 C2.9021309 158.76096297 8.25033935 164.33076495 10.5625 171.671875 C12.18947267 180.32969383 11.82276204 188.49475492 7 196 C2.63749064 202.12559604 -2.53833423 206.24146441 -9 210 C-9.6909375 210.41894531 -10.381875 210.83789062 -11.09375 211.26953125 C-22.85118155 217.78993783 -37.68358668 221.6408312 -51 223 C-52.26585937 223.13277344 -53.53171875 223.26554688 -54.8359375 223.40234375 C-84.58058385 226.05593352 -113.41699516 217.38048483 -136.47167969 198.296875 C-160.182662 178.1766293 -172.85725886 148.57062905 -176.6875 118.1875 C-179.48712978 81.97101265 -169.88580218 47.36458897 -146.23046875 19.515625 C-111.6618521 -19.47244702 -43.80420451 -32.39136207 0 0 Z " fill="#FFFFFF" transform="translate(843,117)"/>
<path d="M0 0 C1.6970533 -0.00786278 1.6970533 -0.00786278 3.4283905 -0.0158844 C5.82651959 -0.02230591 8.22468017 -0.02096598 10.62280273 -0.01245117 C14.24196818 -0.00402499 17.85950945 -0.03256652 21.47851562 -0.06445312 C42.41842156 -0.1285368 61.44161058 1.94778069 77.23828125 17.1640625 C77.97820312 17.91300781 78.718125 18.66195313 79.48046875 19.43359375 C80.11726563 20.04847656 80.7540625 20.66335938 81.41015625 21.296875 C95.97444475 36.41136996 98.10330725 56.96470274 97.95117188 76.89697266 C97.72792522 85.98239906 96.95664884 93.95005901 93.48046875 102.43359375 C93.00609375 103.614375 92.53171875 104.79515625 92.04296875 106.01171875 C84.58484579 122.57735725 72.11515622 132.85879634 55.3125 139.4375 C42.27443075 144.02330367 28.22302282 143.62030217 14.55834961 143.61889648 C12.15395997 143.62110663 9.75001359 143.63940992 7.34570312 143.65820312 C5.79036612 143.66113423 4.23502698 143.66312092 2.6796875 143.6640625 C1.97430344 143.67124802 1.26891937 143.67843353 0.54216003 143.68583679 C-7.47390783 143.64947127 -13.75200478 142.20112022 -19.51953125 136.43359375 C-20.5094852 133.46373189 -20.65204745 131.50524522 -20.66670227 128.40568542 C-20.67385757 127.36687729 -20.68101288 126.32806915 -20.68838501 125.25778198 C-20.69241837 123.54886276 -20.69241837 123.54886276 -20.6965332 121.80541992 C-20.7031044 120.60517685 -20.7096756 119.40493378 -20.71644592 118.1683197 C-20.73619235 114.18773144 -20.74784556 110.20718347 -20.7578125 106.2265625 C-20.76186086 104.85504957 -20.76597781 103.48353683 -20.77016258 102.11202431 C-20.78920844 95.66848661 -20.8034411 89.22496033 -20.81177455 82.78139991 C-20.82154713 75.34825907 -20.84786938 67.91541601 -20.88827544 60.48238009 C-20.91845125 54.7336509 -20.93324477 48.985007 -20.93655556 43.23620015 C-20.93890428 39.80418987 -20.9478409 36.37249793 -20.97301674 32.94057274 C-20.99730255 29.11012286 -20.99646199 25.28045409 -20.98950195 21.44995117 C-21.00871704 19.75014099 -21.00871704 19.75014099 -21.02832031 18.01599121 C-20.98733005 11.83383301 -20.68210309 8.12597279 -16.51953125 3.43359375 C-11.86782533 -0.80077331 -5.93697492 -0.01608847 0 0 Z M9.48046875 28.43359375 C9.48046875 56.81359375 9.48046875 85.19359375 9.48046875 114.43359375 C34.05063335 115.5473437 34.05063335 115.5473437 54.48046875 105.43359375 C63.3928705 96.20360084 66.15871101 83.92468895 66.48046875 71.43359375 C66.09990982 56.65975236 62.27676674 45.7927177 51.48046875 35.43359375 C39.84650682 25.57001733 23.51268346 28.43359375 9.48046875 28.43359375 Z " fill="#FFFFFF" transform="translate(977.51953125,371.56640625)"/>
<path d="M0 0 C6.47229699 3.89427126 9.76598996 9.07683633 12.48828125 16.046875 C12.86602692 17.01290901 12.86602692 17.01290901 13.25140381 17.99845886 C17.02909128 27.75956949 20.51462033 37.63243457 24.03515625 47.48828125 C25.62016575 51.92350956 27.20600692 56.35843861 28.79296875 60.79296875 C29.19832855 61.92639206 29.60368835 63.05981537 30.02133179 64.22758484 C32.53379806 71.23623355 35.08726304 78.2283612 37.67651367 85.20899963 C39.35984523 89.74890289 41.03050766 94.29342477 42.70056152 98.83822632 C43.500693 101.00463336 44.30699757 103.16877142 45.11975098 105.33047485 C46.25620575 108.35522149 47.37040257 111.38736274 48.48046875 114.421875 C48.81706512 115.30009918 49.1536615 116.17832336 49.50045776 117.0831604 C51.73214106 123.27609825 52.57413182 129.09730845 51.78515625 135.67578125 C49.74484954 139.82926278 48.06352293 142.00196411 43.78515625 143.67578125 C38.31451856 144.33103869 33.37968713 144.35915163 28.28515625 142.17578125 C21.17200433 135.06262933 19.72582709 125.08592793 16.78515625 115.67578125 C-1.03484375 115.34578125 -18.85484375 115.01578125 -37.21484375 114.67578125 C-39.19482286 121.91480924 -39.19482286 121.91480924 -41.13671875 129.1640625 C-42.73128086 134.60212102 -44.25421493 139.30550519 -48.95703125 142.74609375 C-53.89302372 144.77856124 -59.02161646 144.45108931 -64.21484375 143.67578125 C-68.18864439 141.89442234 -69.66423116 140.48334638 -72.08984375 136.92578125 C-74.56375179 129.77893579 -73.01185972 123.9561367 -70.41796875 117.16796875 C-70.11710861 116.34913208 -69.81624847 115.53029541 -69.50627136 114.68664551 C-68.50468381 111.96998866 -67.48487252 109.26056211 -66.46484375 106.55078125 C-65.75152146 104.62754724 -65.03939019 102.70387112 -64.32836914 100.77978516 C-62.79311882 96.6318048 -61.25010305 92.48682314 -59.70166016 88.34375 C-57.09635397 81.36797314 -54.5196886 74.38177031 -51.9453125 67.39453125 C-42.6638879 42.22808489 -42.6638879 42.22808489 -38.27606201 30.5267334 C-37.26238482 27.80349987 -36.27002534 25.07335048 -35.28173828 22.34082031 C-34.68837376 20.7361253 -34.09449642 19.13161977 -33.5 17.52734375 C-33.25261581 16.82475433 -33.00523163 16.12216492 -32.75035095 15.39828491 C-30.28002044 8.8330822 -25.83158386 2.63444166 -19.46875 -0.66796875 C-13.24408217 -2.48035037 -5.98537945 -2.46542361 0 0 Z M-11.21484375 32.67578125 C-13.6400247 40.04340941 -16.06063668 47.41252697 -18.47802734 54.78271484 C-19.30151068 57.29152687 -20.12605236 59.79999176 -20.95166016 62.30810547 C-22.13590251 65.90632564 -23.31637455 69.50576347 -24.49609375 73.10546875 C-24.867948 74.2325827 -25.23980225 75.35969666 -25.6229248 76.52096558 C-25.96327759 77.56189362 -26.30363037 78.60282166 -26.65429688 79.67529297 C-27.10730164 81.05429276 -27.10730164 81.05429276 -27.56945801 82.46115112 C-28.3081041 84.6113437 -28.3081041 84.6113437 -28.21484375 86.67578125 C-16.33484375 86.67578125 -4.45484375 86.67578125 7.78515625 86.67578125 C5.81024795 79.43445083 3.77110095 72.31257518 1.4296875 65.1953125 C1.12318771 64.25644699 0.81668793 63.31758148 0.50090027 62.3502655 C-0.46434944 59.39544681 -1.43327582 56.44184962 -2.40234375 53.48828125 C-3.06339624 51.46687705 -3.72420567 49.44539333 -4.38476562 47.42382812 C-5.99198797 42.50689046 -7.6025054 37.59104355 -9.21484375 32.67578125 C-9.87484375 32.67578125 -10.53484375 32.67578125 -11.21484375 32.67578125 Z " fill="#FFFFFF" transform="translate(895.21484375,371.32421875)"/>
<path d="M0 0 C1.83231422 -0.01902626 1.83231422 -0.01902626 3.7016449 -0.03843689 C5.01319046 -0.03550125 6.32473602 -0.03256561 7.67602539 -0.02954102 C9.04456338 -0.034106 10.41309908 -0.03941252 11.78163147 -0.04542542 C14.64553152 -0.05434441 17.50915254 -0.05194768 20.37304688 -0.04199219 C24.03275055 -0.03050638 27.69148875 -0.0507126 31.35106564 -0.07990932 C34.17621419 -0.09830713 37.00113291 -0.09797182 39.82632637 -0.0922718 C41.82817324 -0.09204502 43.82999862 -0.10891078 45.83177185 -0.12608337 C57.13185682 -0.03952668 57.13185682 -0.03952668 61.83618164 4.40405273 C64.94749715 8.810251 64.43411594 14.24686944 63.83618164 19.40405273 C61.47758353 24.4841102 58.96772362 26.36117613 53.83618164 28.40405273 C50.78867258 28.78987855 47.78670101 28.75479958 44.71899414 28.69702148 C43.86183807 28.69277664 43.00468201 28.6885318 42.12155151 28.68415833 C39.4011 28.66745159 36.68140682 28.62981493 33.96118164 28.59155273 C32.10962989 28.57649552 30.25806645 28.56280893 28.40649414 28.55053711 C23.88253399 28.52013415 19.3602002 28.46139945 14.83618164 28.40405273 C14.83618164 37.64405273 14.83618164 46.88405273 14.83618164 56.40405273 C18.73817383 56.3518457 18.73817383 56.3518457 22.71899414 56.29858398 C25.25088403 56.27515783 27.78276164 56.2569587 30.31469727 56.23925781 C32.06833337 56.22421278 33.82193211 56.2037717 35.57543945 56.17773438 C38.10255173 56.14116152 40.6291646 56.12428353 43.15649414 56.11108398 C43.93485626 56.09560013 44.71321838 56.08011627 45.51516724 56.06416321 C50.36825209 56.06267779 53.61691713 56.75209043 57.83618164 59.40405273 C61.25286436 63.00056086 62.16934324 66.006321 62.46118164 70.84155273 C62.2620798 75.71291118 61.12235185 78.43726491 57.92993164 82.06420898 C52.56061586 85.50017039 46.03403204 85.69337489 39.83618164 85.59936523 C39.11503174 85.59653534 38.39388184 85.59370544 37.65087891 85.59078979 C35.37913417 85.5797197 33.10780437 85.55464168 30.83618164 85.52905273 C29.28280197 85.51900584 27.72941604 85.509883 26.17602539 85.50170898 C22.39579447 85.48153699 18.61644476 85.44236621 14.83618164 85.40405273 C14.83618164 94.97405273 14.83618164 104.54405273 14.83618164 114.40405273 C17.72625977 114.36924805 20.61633789 114.33444336 23.59399414 114.29858398 C26.40387993 114.27516439 29.21375471 114.25696149 32.02368164 114.23925781 C33.97132258 114.22420374 35.9189298 114.20375593 37.86645508 114.17773438 C40.67155292 114.1412022 43.47620118 114.1242924 46.28149414 114.11108398 C47.58028 114.0878582 47.58028 114.0878582 48.90530396 114.06416321 C53.97882209 114.06276191 57.44446489 114.5778044 61.83618164 117.40405273 C65.0994947 120.92499577 66.12432896 123.7079849 66.33618164 128.40405273 C66.09720782 134.07968089 64.01517407 137.29769339 59.96118164 141.21655273 C54.14406441 144.46729472 46.62374046 143.56536614 40.15649414 143.57202148 C39.02976288 143.57534988 37.90303162 143.57867828 36.74215698 143.58210754 C34.36350918 143.58716018 31.98485433 143.58951638 29.60620117 143.58935547 C25.9809188 143.59154084 22.35594144 143.60971149 18.73071289 143.62866211 C16.41430768 143.63159665 14.09790102 143.63358104 11.78149414 143.63452148 C10.70417023 143.641707 9.62684631 143.64889252 8.51687622 143.65629578 C0.40181183 143.63184486 -7.09742951 143.47044158 -13.16381836 137.40405273 C-15.07918267 134.29126699 -15.41764043 131.93012895 -15.4312439 128.30058289 C-15.44403885 126.75509766 -15.44403885 126.75509766 -15.45709229 125.1783905 C-15.45618591 124.05362808 -15.45527954 122.92886566 -15.4543457 121.77001953 C-15.46106293 120.5809903 -15.46778015 119.39196106 -15.47470093 118.16690063 C-15.49044424 114.90846712 -15.49705604 111.65018658 -15.4983325 108.39171958 C-15.49975532 106.35404417 -15.50402743 104.31639537 -15.50932693 102.27872658 C-15.52782628 95.16431613 -15.53599786 88.04998058 -15.53442383 80.93554688 C-15.53322313 74.31328837 -15.55431138 67.69135616 -15.58591115 61.06918019 C-15.61210361 55.37645271 -15.62278986 49.68383159 -15.62151301 43.99104434 C-15.62100415 40.59424638 -15.62664437 37.19773832 -15.64786911 33.8010006 C-15.6674705 30.00914857 -15.66171272 26.21813514 -15.6496582 22.42626953 C-15.66089722 21.3075798 -15.67213623 20.18889008 -15.68371582 19.03630066 C-15.63192611 12.62332929 -15.15044683 8.53310313 -11.16381836 3.40405273 C-7.49111119 0.43414536 -4.65832019 0.0234735 0 0 Z " fill="#FFFFFF" transform="translate(754.163818359375,371.595947265625)"/>
<path d="M0 0 C6.16654152 4.24561489 10.53830454 9.47497525 12 17 C12.84031198 25.85928917 12.06535061 32.56896367 7 40 C1.92079537 45.99085674 -4.08160155 50.09738463 -12 51 C-20.61401059 51.23246205 -28.30915068 49.15644877 -34.8515625 43.359375 C-40.75622065 36.90206412 -42.97348975 29.64234115 -43 21 C-42.36029202 12.60035605 -38.22722762 6.77287227 -32.125 1.1875 C-22.28927181 -5.69750973 -10.34807912 -6.42774914 0 0 Z " fill="#FFFFFF" transform="translate(635,263)"/>
</svg>
